<?xml version="1.0" encoding="utf-8"?>
<svg viewBox="0 0 128 128" xmlns="http://www.w3.org/2000/svg">
  <ellipse style="fill: rgb(216, 216, 216); stroke: rgba(0, 0, 0, 0);" cx="64.138" cy="64.418" rx="63.917" ry="63.834"/>
  <path d="M 111.768 90.926 C 108.244 91.825 106.065 90.965 104.11 88.021 C 99.719 81.428 94.874 75.137 90.198 68.731 C 89.596 67.902 88.97 67.087 88.189 66.058 C 82.655 73.541 77.13 80.669 71.944 88.083 C 70.089 90.732 68.142 91.887 64.68 90.95 L 85.484 62.959 L 66.117 37.68 C 69.448 37.028 71.751 37.362 73.791 40.353 C 78.297 46.953 83.267 53.236 88.22 59.883 C 93.205 53.26 98.112 46.968 102.748 40.43 C 104.611 37.78 106.613 36.773 109.96 37.75 C 107.425 41.12 104.944 44.435 102.448 47.728 C 99.078 52.167 95.77 56.661 92.277 61.007 C 91.033 62.556 91.234 63.562 92.347 65.027 C 98.807 73.541 105.191 82.141 111.768 90.926 Z M 14.902 62.494 C 15.459 59.697 15.83 56.846 16.602 54.104 C 21.239 37.501 40.25 30.599 53.311 40.887 C 60.962 46.922 62.864 55.428 62.485 65.02 L 19.362 65.02 C 18.712 82.226 31.07 92.615 46.82 87.316 C 52.345 85.457 55.599 81.118 57.23 75.696 C 58.056 72.976 59.425 72.55 61.974 73.325 C 60.669 80.111 57.708 85.782 51.526 89.33 C 42.252 94.645 29.014 92.926 22.051 85.542 C 17.939 81.203 16.194 75.804 15.42 69.97 C 15.304 69.041 15.065 68.126 14.879 67.205 C 14.895 65.634 14.902 64.064 14.902 62.494 Z M 19.438 61.34 L 58.412 61.34 C 58.157 48.898 50.428 40.058 39.864 39.981 C 28.272 39.887 19.941 48.518 19.438 61.34 Z" style=""/>
</svg>