<svg width="100" height="100" viewBox="0 0 100 100" fill="none" xmlns="http://www.w3.org/2000/svg">
<path fill-rule="evenodd" clip-rule="evenodd" d="M58.6929 12.0152C69.9348 12.0113 81.1771 11.9771 92.419 12.0245C99.1022 12.0519 100.987 14.285 99.5458 20.8852C95.3268 40.2149 91.0129 59.525 86.641 78.821C85.2584 84.92 82.0819 87.4184 75.6659 87.4374C53.1817 87.5043 30.6974 87.5117 8.21374 87.4345C0.864588 87.4086 -1.06858 84.9195 0.514792 77.9548C4.81104 59.0399 9.13024 40.1308 13.4841 21.2291C15.1427 14.0261 17.6353 12.0484 24.9659 12.0274C36.2082 11.9957 47.4506 12.0191 58.6929 12.0152Z" fill="#E0EAF5"/>
<path fill-rule="evenodd" clip-rule="evenodd" d="M41.7038 85.1897C30.4605 85.1858 19.2167 85.2375 7.97388 85.1638C2.27259 85.1266 1.2359 83.7812 2.5193 78.205C6.87026 59.2935 11.3614 40.4137 15.6157 21.4808C16.7564 16.4028 19.2172 14.1585 24.6576 14.2088C47.1423 14.4174 69.6309 14.2757 92.117 14.2987C97.7563 14.3041 98.7031 15.5103 97.4373 21.2297C93.3272 39.7977 89.1912 58.3604 84.9824 76.9064C83.4073 83.8471 81.5929 85.1716 74.2906 85.1877C63.4284 85.2107 52.5656 85.1936 41.7038 85.1897Z" fill="#2671BE"/>
<path fill-rule="evenodd" clip-rule="evenodd" d="M51.271 48.1278C50.5172 47.2435 49.6896 46.2254 48.8131 45.2522C43.8432 39.7317 38.9172 34.1701 33.8588 28.7322C31.5441 26.2435 30.8064 23.8267 33.5862 21.3703C36.3333 18.9423 39.0325 19.1572 41.5524 21.9507C48.5703 29.7278 55.5799 37.5137 62.7141 45.1838C65.3776 48.0487 64.7572 49.9965 61.8235 52.1192C50.5631 60.2695 39.3662 68.5083 28.1815 76.7627C25.6674 78.6187 23.2706 79.0833 21.2398 76.3421C18.9993 73.3185 21.0722 71.5197 23.3962 69.8274C31.7078 63.7734 40.0032 57.6969 48.263 51.5725C49.4135 50.7195 51.0653 50.2222 51.271 48.1278Z" fill="#FDFDFE"/>
<path fill-rule="evenodd" clip-rule="evenodd" d="M54.831 77.3759C51.804 77.3759 48.7726 77.4799 45.7524 77.3427C43.3429 77.2337 41.8929 75.8873 41.9232 73.3493C41.9525 70.9496 43.1621 69.1454 45.5692 69.0804C52.185 68.9031 58.8106 68.9412 65.4289 69.0706C67.5321 69.1117 69.0847 70.482 69.072 72.6736C69.0569 75.1877 67.7339 77.1355 65.0415 77.2977C61.6491 77.5029 58.2356 77.3485 54.8315 77.3485C54.831 77.3568 54.831 77.3666 54.831 77.3759Z" fill="#FCFDFD"/>
</svg>
