<?xml version="1.0" standalone="no"?>
<!DOCTYPE svg PUBLIC "-//W3C//DTD SVG 20010904//EN"
 "http://www.w3.org/TR/2001/REC-SVG-20010904/DTD/svg10.dtd">
<svg version="1.0" xmlns="http://www.w3.org/2000/svg"
 width="379.000000pt" height="379.000000pt" viewBox="0 0 379.000000 379.000000"
 preserveAspectRatio="xMidYMid meet">
<metadata>
Created by potrace 1.14, written by Peter Selinger 2001-2017
</metadata>
<g transform="translate(0.000000,379.000000) scale(0.100000,-0.100000)"
fill="#000000" stroke="none">
<path d="M1738 3785 c-2 -1 -30 -5 -63 -9 -194 -20 -426 -87 -600 -173 -590
-291 -971 -822 -1060 -1473 -12 -92 -15 -446 -3 -466 3 -5 9 -34 12 -64 25
-215 152 -543 291 -750 93 -138 236 -300 348 -395 211 -180 478 -320 738 -388
115 -30 164 -40 294 -56 71 -9 426 -8 441 2 5 2 32 8 59 11 148 20 343 81 510
160 392 186 687 476 880 861 103 206 162 398 192 625 18 132 8 431 -18 563 -6
29 -12 63 -15 77 -26 136 -121 383 -199 515 -13 22 -31 54 -39 70 -51 95 -250
328 -366 430 -287 249 -662 412 -1045 454 -74 8 -349 13 -357 6z"/>
</g>
</svg>
